Coordinates
version=1
nRows=14
nColumns=24
inDegrees=yes

Units are S.I. units (second, meters, Newtons, ...)
Angles are in degrees.

endheader
time	pelvis_tilt	pelvis_list	pelvis_rotation	pelvis_tx	pelvis_ty	pelvis_tz	hip_flexion_r	hip_adduction_r	hip_rotation_r	knee_angle_r	ankle_angle_r	subtalar_angle_r	mtp_angle_r	hip_flexion_l	hip_adduction_l	hip_rotation_l	knee_angle_l	ankle_angle_l	subtalar_angle_l	mtp_angle_l	lumbar_extension	lumbar_bending	lumbar_rotation
      5.25000000	      7.25609655	      2.55329118	     10.74121474	      1.79410819	      0.87758944	     -0.15445600	     21.95436213	     -2.43939599	    -10.76136678	    -19.56727743	     13.69427373	      6.78855959	      0.00000000	    -26.54484857	      1.38823388	      0.98360390	    -22.84652706	     11.53019237	      3.22072681	      0.00000000	    -32.66069548	      2.94811374	    -12.17279146
      5.26000000	      7.37039235	      1.92772723	     10.75415245	      1.81162551	      0.87546328	     -0.15402217	     22.84495097	     -1.82307461	    -10.83011083	    -22.94346412	     14.27698756	      6.32928694	      0.00000000	    -25.02690520	      0.16497669	     -0.45563231	    -26.83125451	      8.87811052	      4.40696460	      0.00000000	    -32.53143702	      3.73995202	    -11.69114755
      5.27000000	      7.61289288	      1.26861000	     10.80569422	      1.82894855	      0.87380600	     -0.15367022	     23.47120402	     -1.17081419	    -11.03854796	    -26.13400444	     15.26804645	      6.09062364	      0.00000000	    -23.41086078	     -1.14086093	     -1.42078815	    -30.97697910	      5.57577320	      5.28942189	      0.00000000	    -32.54187883	      4.59881482	    -11.27256734
      5.28000000	      7.94194718	      0.60014647	     10.95132339	      1.84599726	      0.87257737	     -0.15344506	     23.78893605	     -0.52523782	    -11.44630999	    -29.00584725	     16.63107214	      6.08237215	      0.00000000	    -21.64901273	     -2.48913805	     -1.90447861	    -35.24967520	      1.92647498	      6.01149345	      0.00000000	    -32.64323187	      5.49918954	    -10.94720592
      5.29000000	      8.30770208	     -0.08712062	     11.23399439	      1.86271252	      0.87175425	     -0.15336960	     23.75979623	      0.12995657	    -12.03769883	    -31.38964681	     18.23300299	      6.20101076	      0.00000000	    -19.69834455	     -3.85388946	     -1.89794816	    -39.59191996	     -1.66356883	      6.72650065	      0.00000000	    -32.77206291	      6.45100169	    -10.65520759
      5.30000000	      8.61433873	     -0.77245025	     11.66051894	      1.87902674	      0.87125424	     -0.15339106	     23.46074037	      0.76782653	    -12.80296226	    -33.22188994	     19.93175164	      6.39768880	      0.00000000	    -17.47513405	     -5.18021623	     -1.49705342	    -43.94333814	     -4.79215829	      7.44329110	      0.00000000	    -32.82254585	      7.39465419	    -10.43866828
      5.31000000	      8.80280374	     -1.43538443	     12.21943574	      1.89492569	      0.87111258	     -0.15350292	     22.94312030	      1.37648932	    -13.69518771	    -34.46158670	     21.61363231	      6.65058728	      0.00000000	    -14.96765571	     -6.38496195	     -0.74389210	    -48.19276943	     -7.15154096	      8.06745507	      0.00000000	    -32.72312202	      8.30463617	    -10.25282906
      5.32000000	      8.86329836	     -2.05124691	     12.86849976	      1.91040953	      0.87142222	     -0.15367105	     22.24560029	      1.94919708	    -14.66277270	    -35.13473609	     23.18231402	      6.93876745	      0.00000000	    -12.22098854	     -7.40185809	      0.24436558	    -52.23913393	     -8.58546122	      8.45849618	      0.00000000	    -32.47259935	      9.13731469	    -10.08811778
      5.33000000	      8.81591204	     -2.58715634	     13.55050369	      1.92550895	      0.87232593	     -0.15387174	     21.38350984	      2.48305655	    -15.61999407	    -35.29290352	     24.56045788	      7.24401326	      0.00000000	     -9.32867334	     -8.16740441	      1.34771446	    -55.97046467	     -9.09563688	      8.49850093	      0.00000000	    -32.11151127	      9.84469862	     -9.91120064
      5.34000000	      8.71167044	     -3.01441532	     14.20250267	      1.94028290	      0.87396268	     -0.15408102	     20.34556776	      2.98251328	    -16.48936026	    -35.00934523	     25.70633389	      7.52569529	      0.00000000	     -6.41529573	     -8.65658667	      2.42810175	    -59.29640022	     -8.79372780	      8.15579214	      0.00000000	    -31.71465019	     10.39031935	     -9.70262882
      5.35000000	      8.58584960	     -3.30558587	     14.76798178	      1.95480168	      0.87640367	     -0.15428740	     19.12999117	      3.44869950	    -17.17828842	    -34.35536720	     26.59203813	      7.74993152	      0.00000000	     -3.58401229	     -8.85331682	      3.38430117	    -62.14817409	     -7.87583571	      7.45984686	      0.00000000	    -31.33786066	     10.74322716	     -9.42806624
      5.36000000	      8.45569518	     -3.44462173	     15.19644000	      1.96914140	      0.87962805	     -0.15445307	     17.74997622	      3.87971978	    -17.61188901	    -33.39965750	     27.21095122	      7.88326758	      0.00000000	     -0.90195519	     -8.77036548	      4.13203618	    -64.49364889	     -6.57748066	      6.50605846	      0.00000000	    -31.01300323	     10.87245580	     -9.07622861
      5.37000000	      8.36238937	     -3.43330421	     15.46994123	      1.98338231	      0.88359324	     -0.15457122	     16.17511041	      4.28504849	    -17.76486233	    -32.17753838	     27.58204803	      7.89413196	      0.00000000	      1.55339834	     -8.44962767	      4.63583470	    -66.31359245	     -5.15801321	      5.36785548	      0.00000000	    -30.78387456	     10.79240224	     -8.61481690
      5.38000000	      8.16790550	     -3.25730103	     15.53439504	      1.99757502	      0.88798001	     -0.15456312	     14.58778390	      4.60895654	    -17.53761145	    -30.77691391	     27.73643384	      7.74889882	      0.00000000	      3.90810215	     -7.86692810	      4.85024819	    -67.64102712	     -3.71116228	      4.20617665	      0.00000000	    -30.49609671	     10.44028213	     -8.10891453
